<svg xmlns="http://www.w3.org/2000/svg" xmlns:xlink="http://www.w3.org/1999/xlink" width="5000" zoomAndPan="magnify" viewBox="0 0 3750 3749.999967" height="5000" preserveAspectRatio="xMidYMid meet" version="1.0"><defs><clipPath id="4ada4a647f"><path d="M 14.0625 3 L 3735 3 L 3735 3747 L 14.0625 3747 Z M 14.0625 3 " clip-rule="nonzero"/></clipPath></defs><rect x="-375" width="4500" fill="#ffffff" y="-374.999997" height="4499.99996" fill-opacity="1"/><rect x="-375" width="4500" fill="#000000" y="-374.999997" height="4499.99996" fill-opacity="1"/><g clip-path="url(#4ada4a647f)"><path fill="#a100ff" d="M 3705.246094 2584.265625 L 3517.355469 2395.628906 L 3451.480469 2395.628906 L 3333.207031 2513.902344 L 3267.335938 2513.902344 L 3388.601562 2635.167969 L 3543.554688 2635.167969 L 3612.425781 2704.039062 L 3682.039062 2704.039062 C 3683.539062 2698.050781 3689.527344 2692.808594 3696.261719 2692.808594 C 3704.496094 2692.808594 3711.234375 2699.546875 3711.234375 2707.78125 C 3711.234375 2716.015625 3704.496094 2722.753906 3696.261719 2722.753906 C 3689.527344 2722.753906 3683.539062 2718.261719 3682.039062 2711.523438 L 3609.429688 2711.523438 L 3540.5625 2642.65625 L 3385.609375 2642.65625 L 3256.105469 2513.152344 L 3196.96875 2513.152344 L 3107.890625 2424.074219 C 3101.902344 2427.066406 3095.164062 2426.320312 3089.925781 2421.828125 C 3083.9375 2415.839844 3083.9375 2406.855469 3089.925781 2400.867188 C 3095.914062 2394.878906 3104.894531 2394.878906 3110.882812 2400.867188 C 3115.375 2406.109375 3116.125 2412.847656 3113.128906 2418.835938 L 3199.964844 2505.667969 L 3329.464844 2505.667969 L 3439.503906 2395.628906 L 3353.417969 2395.628906 L 3230.65625 2271.367188 L 3088.425781 2271.367188 L 2896.046875 2464.496094 L 2985.125 2464.496094 L 3382.613281 2861.984375 L 3589.21875 2861.984375 L 3688.027344 2961.542969 C 3694.019531 2958.550781 3700.753906 2959.300781 3705.996094 2963.789062 C 3711.984375 2969.777344 3711.984375 2978.761719 3705.996094 2984.75 C 3700.007812 2990.738281 3691.023438 2990.738281 3685.035156 2984.75 C 3680.542969 2980.257812 3679.792969 2972.773438 3682.789062 2966.785156 L 3586.222656 2870.21875 L 3379.621094 2870.21875 L 2982.128906 2472.730469 L 2788.25 2472.730469 L 2643.03125 2618.699219 L 2504.546875 2618.699219 L 2345.847656 2777.398438 L 2168.4375 2777.398438 L 1885.480469 2493.691406 L 1690.105469 2493.691406 C 1688.605469 2499.679688 1682.617188 2504.917969 1675.882812 2504.917969 C 1667.648438 2504.917969 1660.910156 2498.183594 1660.910156 2489.949219 C 1660.910156 2481.714844 1667.648438 2474.976562 1675.882812 2474.976562 C 1682.617188 2474.976562 1688.605469 2479.46875 1690.105469 2486.203125 L 1889.222656 2486.203125 L 2171.433594 2768.414062 L 2342.105469 2768.414062 L 2492.566406 2617.953125 L 2342.105469 2617.953125 L 2007.496094 2283.34375 L 1595.035156 2283.34375 L 1393.671875 2484.707031 L 1237.96875 2484.707031 L 1562.847656 2809.585938 L 1733.519531 2809.585938 L 1853.292969 2689.816406 L 1943.867188 2689.816406 L 2296.441406 3042.390625 L 2470.109375 3042.390625 L 2939.460938 2573.039062 C 2936.46875 2567.050781 2937.214844 2560.3125 2941.707031 2555.074219 C 2947.695312 2549.085938 2956.679688 2549.085938 2962.667969 2555.074219 C 2968.65625 2561.0625 2968.65625 2570.042969 2962.667969 2576.03125 C 2958.175781 2580.523438 2950.691406 2581.273438 2944.703125 2578.277344 L 2473.105469 3049.875 L 2293.449219 3049.875 L 1940.125 2698.050781 L 1855.539062 2698.050781 L 1744 2809.585938 L 1838.320312 2809.585938 L 2327.132812 3298.398438 L 2779.269531 3298.398438 L 2924.492188 3153.179688 L 3030.039062 3153.179688 L 2861.609375 2984.75 L 2741.089844 2984.75 L 2521.761719 3205.578125 L 2409.476562 3205.578125 C 2407.980469 3211.566406 2401.992188 3216.804688 2395.253906 3216.804688 C 2387.019531 3216.804688 2380.28125 3210.070312 2380.28125 3201.835938 C 2380.28125 3193.601562 2387.019531 3186.863281 2395.253906 3186.863281 C 2401.992188 3186.863281 2407.980469 3191.355469 2409.476562 3198.09375 L 2518.765625 3198.09375 L 2739.59375 2977.265625 L 2803.222656 2977.265625 L 2935.71875 2844.769531 L 3161.785156 2844.769531 L 3500.886719 3183.867188 L 3697.011719 3183.867188 C 3698.507812 3177.878906 3704.496094 3172.640625 3711.234375 3172.640625 C 3719.46875 3172.640625 3726.207031 3179.378906 3726.207031 3187.613281 C 3726.207031 3195.847656 3719.46875 3202.582031 3711.234375 3202.582031 C 3704.496094 3202.582031 3698.507812 3198.089844 3697.011719 3191.355469 L 3497.894531 3191.355469 L 3158.792969 2852.253906 L 2939.460938 2852.253906 L 2813.703125 2977.265625 L 2865.355469 2977.265625 L 3041.265625 3153.179688 L 3223.167969 3153.179688 L 3589.964844 3519.976562 L 3697.011719 3519.976562 C 3699.257812 3513.988281 3704.496094 3509.496094 3711.234375 3509.496094 C 3719.46875 3509.496094 3726.207031 3516.234375 3726.207031 3524.46875 C 3726.207031 3532.703125 3719.46875 3539.4375 3711.234375 3539.4375 C 3704.496094 3539.4375 3698.507812 3534.945312 3697.011719 3528.210938 L 3623.652344 3528.210938 L 3496.394531 3655.464844 L 3259.847656 3655.464844 L 3190.980469 3724.335938 C 3193.976562 3730.324219 3193.226562 3737.058594 3188.734375 3742.300781 C 3182.746094 3748.289062 3173.761719 3748.289062 3167.773438 3742.300781 C 3161.785156 3736.3125 3161.785156 3727.328125 3167.773438 3721.339844 C 3173.015625 3716.847656 3179.753906 3716.101562 3185.742188 3719.09375 L 3256.855469 3647.980469 L 3493.402344 3647.980469 L 3612.421875 3528.957031 L 3587.722656 3528.957031 L 3220.921875 3162.160156 L 2928.234375 3162.160156 L 2783.011719 3307.382812 L 2455.886719 3307.382812 L 2330.128906 3431.644531 L 2265.003906 3431.644531 L 2327.882812 3494.523438 L 2549.457031 3494.523438 L 2627.308594 3416.671875 L 2949.941406 3416.671875 L 3080.941406 3285.675781 C 3077.945312 3279.6875 3078.695312 3272.949219 3083.1875 3267.707031 C 3089.175781 3261.71875 3098.15625 3261.71875 3104.144531 3267.707031 C 3110.136719 3273.695312 3110.136719 3282.679688 3104.144531 3288.667969 C 3098.90625 3293.160156 3092.167969 3293.910156 3086.179688 3290.914062 L 2952.9375 3424.160156 L 2630.304688 3424.160156 L 2552.453125 3502.011719 L 2324.140625 3502.011719 L 2253.027344 3430.894531 L 2164.695312 3430.894531 L 1791.910156 3058.109375 L 1586.800781 3058.109375 C 1585.304688 3064.097656 1579.316406 3069.339844 1572.578125 3069.339844 C 1564.34375 3069.339844 1557.609375 3062.601562 1557.609375 3054.367188 C 1557.609375 3046.132812 1564.34375 3039.394531 1572.578125 3039.394531 C 1579.316406 3039.394531 1585.304688 3043.886719 1586.800781 3050.625 L 1795.652344 3050.625 L 2168.4375 3423.410156 L 2327.132812 3423.410156 L 2443.910156 3306.632812 L 2324.140625 3306.632812 L 1834.578125 2817.820312 L 1676.628906 2817.820312 L 1381.695312 3112.753906 L 1239.464844 3112.753906 L 1486.492188 3360.53125 L 1848.050781 3360.53125 L 2095.828125 3608.308594 L 3079.445312 3608.308594 L 3267.335938 3420.417969 C 3264.339844 3414.429688 3265.089844 3407.691406 3269.578125 3402.449219 C 3275.566406 3396.460938 3284.550781 3396.460938 3290.539062 3402.449219 C 3296.527344 3408.4375 3296.527344 3417.421875 3290.539062 3423.410156 C 3286.046875 3427.902344 3278.5625 3428.652344 3272.574219 3425.65625 L 3081.691406 3616.539062 L 2092.832031 3616.539062 L 1845.058594 3368.765625 L 1676.628906 3368.765625 L 1479.757812 3565.636719 L 1366.722656 3565.636719 L 1514.9375 3713.855469 L 1653.425781 3713.855469 L 1827.839844 3539.4375 C 1824.847656 3533.449219 1825.59375 3526.710938 1830.085938 3521.472656 C 1836.074219 3515.484375 1845.058594 3515.484375 1851.046875 3521.472656 C 1857.035156 3527.460938 1857.035156 3536.445312 1851.046875 3542.433594 C 1846.554688 3546.925781 1839.070312 3547.671875 1833.082031 3544.679688 L 1656.417969 3721.339844 L 1511.945312 3721.339844 L 1355.496094 3564.890625 L 1151.882812 3564.890625 L 1030.617188 3686.15625 L 621.898438 3686.15625 C 620.402344 3692.894531 614.414062 3697.386719 607.675781 3697.386719 C 599.441406 3697.386719 592.703125 3690.648438 592.703125 3682.414062 C 592.703125 3674.179688 599.441406 3667.441406 607.675781 3667.441406 C 614.414062 3667.441406 620.402344 3671.933594 621.898438 3677.921875 L 1027.621094 3677.921875 L 1148.890625 3556.65625 L 1291.117188 3556.65625 L 1179.582031 3445.117188 L 1082.265625 3445.117188 L 949.023438 3578.363281 C 950.519531 3580.609375 951.269531 3582.855469 951.269531 3585.847656 C 951.269531 3594.082031 944.53125 3600.820312 936.296875 3600.820312 C 928.0625 3600.820312 921.324219 3594.082031 921.324219 3585.847656 C 921.324219 3577.613281 928.0625 3570.878906 936.296875 3570.878906 C 939.292969 3570.878906 941.535156 3571.625 943.78125 3573.125 L 1080.023438 3436.882812 L 1184.074219 3436.882812 L 1303.09375 3555.90625 L 1477.511719 3555.90625 L 1666.148438 3367.265625 L 1484.246094 3367.265625 L 1228.988281 3112.007812 L 1035.109375 3112.007812 L 669.808594 3476.558594 L 574.738281 3476.558594 L 648.847656 3550.667969 L 822.515625 3550.667969 L 1089.003906 3284.175781 L 1246.953125 3284.175781 C 1248.449219 3278.1875 1254.4375 3272.949219 1261.175781 3272.949219 C 1269.410156 3272.949219 1276.144531 3279.6875 1276.144531 3287.921875 C 1276.144531 3296.152344 1269.410156 3302.890625 1261.175781 3302.890625 C 1254.4375 3302.890625 1248.449219 3298.398438 1246.953125 3291.664062 L 1092 3291.664062 L 826.257812 3558.902344 L 645.851562 3558.902344 L 563.511719 3476.558594 L 455.71875 3476.558594 L 279.804688 3652.472656 L 43.257812 3652.472656 C 41.757812 3658.460938 35.769531 3663.699219 29.035156 3663.699219 C 20.800781 3663.699219 14.0625 3656.964844 14.0625 3648.730469 C 14.0625 3640.496094 20.800781 3633.757812 29.035156 3633.757812 C 35.769531 3633.757812 41.757812 3638.25 43.257812 3644.988281 L 276.0625 3644.988281 L 451.972656 3469.074219 L 524.585938 3469.074219 L 408.558594 3353.046875 L 334.449219 3353.046875 L 186.234375 3500.511719 C 189.226562 3506.5 188.480469 3513.238281 183.988281 3518.480469 C 178 3524.46875 169.015625 3524.46875 163.027344 3518.480469 C 157.039062 3512.492188 157.039062 3503.507812 163.027344 3497.519531 C 167.519531 3493.027344 175.003906 3492.277344 180.992188 3495.273438 L 331.453125 3344.8125 L 411.550781 3344.8125 L 535.8125 3469.074219 L 666.8125 3469.074219 L 1030.617188 3105.269531 L 1378.699219 3105.269531 L 1665.402344 2818.570312 L 1557.609375 2818.570312 L 1226.742188 2486.203125 L 1228.238281 2484.707031 L 1069.542969 2484.707031 L 800.058594 2754.191406 L 606.925781 2754.191406 C 605.429688 2760.179688 599.441406 2765.421875 592.703125 2765.421875 C 584.46875 2765.421875 577.734375 2758.683594 577.734375 2750.449219 C 577.734375 2742.214844 584.46875 2735.476562 592.703125 2735.476562 C 599.441406 2735.476562 605.429688 2739.96875 606.925781 2746.707031 L 797.0625 2746.707031 L 1066.546875 2477.222656 L 1145.894531 2477.222656 L 1010.40625 2341.730469 L 761.132812 2341.730469 L 421.28125 2681.582031 L 298.519531 2681.582031 L 601.6875 2984.75 L 797.0625 2984.75 L 1165.359375 2616.457031 C 1162.363281 2610.46875 1163.113281 2603.730469 1167.605469 2598.488281 C 1173.59375 2592.5 1182.574219 2592.5 1188.5625 2598.488281 C 1194.550781 2604.476562 1194.550781 2613.460938 1188.5625 2619.449219 C 1184.074219 2623.941406 1176.585938 2624.691406 1170.597656 2621.695312 L 800.058594 2991.488281 L 706.488281 2991.488281 L 557.523438 3140.453125 L 441.496094 3140.453125 L 550.785156 3249.742188 L 693.011719 3249.742188 L 1008.90625 2933.847656 L 1228.238281 2933.847656 L 1344.265625 2817.820312 C 1342.769531 2815.574219 1342.019531 2813.328125 1342.019531 2810.335938 C 1342.019531 2802.101562 1348.757812 2795.363281 1356.992188 2795.363281 C 1365.226562 2795.363281 1371.960938 2802.101562 1371.960938 2810.335938 C 1371.960938 2818.570312 1365.226562 2825.304688 1356.992188 2825.304688 C 1353.996094 2825.304688 1351.75 2824.558594 1349.503906 2823.058594 L 1231.230469 2941.332031 L 1011.902344 2941.332031 L 696.007812 3257.230469 L 547.042969 3257.230469 L 429.515625 3140.453125 L 364.390625 3140.453125 L 120.359375 3384.484375 C 123.351562 3390.472656 122.605469 3397.210938 118.113281 3402.449219 C 112.125 3408.4375 103.140625 3408.4375 97.152344 3402.449219 C 91.164062 3396.460938 91.164062 3387.480469 97.152344 3381.492188 C 102.394531 3377 109.128906 3376.25 115.117188 3379.246094 L 362.144531 3132.21875 L 478.175781 3132.21875 L 350.917969 3004.960938 L 227.402344 3004.960938 L 88.171875 2866.476562 C 82.183594 2869.472656 75.445312 2868.722656 70.203125 2864.230469 C 64.214844 2858.242188 64.214844 2849.261719 70.203125 2843.269531 C 76.195312 2837.28125 85.175781 2837.28125 91.164062 2843.269531 C 95.65625 2848.511719 96.40625 2855.25 93.410156 2861.238281 L 230.398438 2997.476562 L 353.910156 2997.476562 L 488.652344 3132.21875 L 553.777344 3132.21875 L 695.257812 2991.488281 L 597.945312 2991.488281 L 286.539062 2680.082031 L 204.199219 2680.082031 C 202.703125 2686.070312 196.710938 2691.3125 189.976562 2691.3125 C 181.742188 2691.3125 175.003906 2684.574219 175.003906 2676.339844 C 175.003906 2668.105469 181.742188 2661.371094 189.976562 2661.371094 C 196.710938 2661.371094 202.703125 2665.859375 204.199219 2672.597656 L 418.289062 2672.597656 L 758.136719 2332.75 L 897.371094 2332.75 L 994.683594 2235.433594 L 1339.027344 2235.433594 L 1419.871094 2154.589844 C 1418.375 2152.34375 1417.625 2150.097656 1417.625 2147.105469 C 1417.625 2138.871094 1424.363281 2132.132812 1432.597656 2132.132812 C 1440.832031 2132.132812 1447.566406 2138.871094 1447.566406 2147.105469 C 1447.566406 2155.339844 1440.832031 2162.074219 1432.597656 2162.074219 C 1429.601562 2162.074219 1427.355469 2161.328125 1425.109375 2159.828125 L 1342.019531 2242.921875 L 998.429688 2242.921875 L 908.601562 2332.75 L 1013.398438 2332.75 L 1157.125 2476.472656 L 1389.179688 2476.472656 L 1590.542969 2275.109375 L 1734.269531 2275.109375 L 1439.332031 1979.425781 L 1112.957031 1979.425781 L 948.273438 2144.109375 L 853.953125 2144.109375 L 765.625 2232.441406 L 624.894531 2232.441406 L 485.660156 2372.421875 L 264.832031 2372.421875 L 65.714844 2570.792969 C 68.707031 2576.78125 67.960938 2583.519531 63.46875 2588.757812 C 57.480469 2594.746094 47.746094 2594.746094 42.507812 2588.757812 C 37.269531 2582.769531 36.519531 2573.039062 42.507812 2567.796875 C 47 2563.308594 54.484375 2562.558594 60.472656 2565.554688 L 261.089844 2364.1875 L 481.917969 2364.1875 L 612.917969 2233.1875 L 546.292969 2233.1875 L 352.414062 2039.308594 L 191.472656 2039.308594 L 66.460938 2164.320312 C 67.960938 2166.566406 68.707031 2168.8125 68.707031 2171.808594 C 68.707031 2180.042969 61.972656 2186.777344 53.738281 2186.777344 C 45.503906 2186.777344 38.765625 2180.042969 38.765625 2171.808594 C 38.765625 2163.574219 45.503906 2156.835938 53.738281 2156.835938 C 56.730469 2156.835938 58.976562 2157.585938 61.222656 2159.082031 L 188.480469 2031.824219 L 356.15625 2031.824219 L 550.035156 2225.703125 L 762.628906 2225.703125 L 842.726562 2145.605469 L 775.355469 2145.605469 L 422.78125 1792.285156 C 416.792969 1795.277344 410.054688 1794.527344 404.8125 1790.039062 C 398.824219 1784.050781 398.824219 1775.066406 404.8125 1769.078125 C 410.804688 1763.089844 419.785156 1763.089844 425.773438 1769.078125 C 431.015625 1774.316406 431.015625 1781.054688 428.019531 1787.042969 L 777.601562 2136.625 L 943.78125 2136.625 L 1100.980469 1979.425781 L 902.613281 1979.425781 L 543.300781 1620.113281 L 327.710938 1620.113281 L 67.210938 1879.867188 C 68.707031 1882.113281 69.457031 1884.355469 69.457031 1887.351562 C 69.457031 1895.585938 62.71875 1902.324219 54.484375 1902.324219 C 46.25 1902.324219 39.515625 1895.585938 39.515625 1887.351562 C 39.515625 1879.117188 46.25 1872.378906 54.484375 1872.378906 C 57.480469 1872.378906 59.726562 1873.128906 61.972656 1874.625 L 324.71875 1611.878906 L 432.511719 1611.878906 L 632.378906 1412.011719 L 869.675781 1412.011719 L 526.082031 1068.417969 L 303.757812 1068.417969 L 148.804688 1223.371094 L 100.148438 1223.371094 L 288.039062 1411.261719 L 395.832031 1411.261719 L 535.066406 1272.03125 C 532.070312 1266.039062 532.820312 1259.304688 537.3125 1254.0625 C 543.300781 1248.074219 552.28125 1248.074219 558.269531 1254.0625 C 564.257812 1260.050781 564.257812 1269.035156 558.269531 1275.023438 C 553.03125 1279.515625 546.292969 1280.261719 540.304688 1277.269531 L 398.824219 1418.75 L 284.296875 1418.75 L 88.917969 1223.371094 L 43.257812 1223.371094 C 41.757812 1229.359375 35.769531 1234.601562 29.035156 1234.601562 C 20.800781 1234.601562 14.0625 1227.863281 14.0625 1219.628906 C 14.0625 1211.394531 20.800781 1204.660156 29.035156 1204.660156 C 35.769531 1204.660156 41.757812 1209.148438 43.257812 1215.886719 L 145.0625 1215.886719 L 300.015625 1060.933594 L 395.832031 1060.933594 L 515.601562 941.164062 L 676.542969 941.164062 L 936.296875 1200.914062 C 942.285156 1197.921875 949.023438 1198.667969 954.261719 1203.160156 C 960.25 1209.148438 960.25 1218.132812 954.261719 1224.121094 C 948.273438 1230.109375 939.292969 1230.109375 933.300781 1224.121094 C 928.8125 1218.882812 928.0625 1212.144531 931.058594 1206.15625 L 672.800781 949.398438 L 518.597656 949.398438 L 407.808594 1060.183594 L 529.824219 1060.183594 L 880.902344 1411.261719 L 1031.363281 1411.261719 L 1134.667969 1307.960938 L 1500.714844 1307.960938 L 1739.507812 1546.753906 L 1869.761719 1546.753906 C 1871.257812 1540.015625 1877.246094 1535.523438 1883.984375 1535.523438 C 1892.21875 1535.523438 1898.953125 1542.261719 1898.953125 1550.496094 C 1898.953125 1558.730469 1892.21875 1565.46875 1883.984375 1565.46875 C 1877.246094 1565.46875 1871.257812 1560.976562 1869.761719 1554.238281 L 1735.765625 1554.238281 L 1496.972656 1315.445312 L 1136.914062 1315.445312 L 1041.84375 1410.515625 L 1231.230469 1410.515625 L 1535.898438 1715.179688 L 1930.394531 1715.179688 L 2240.300781 2025.085938 C 2246.289062 2022.09375 2253.773438 2022.09375 2258.265625 2027.332031 C 2264.253906 2033.320312 2264.253906 2042.304688 2258.265625 2048.292969 C 2252.277344 2054.28125 2243.292969 2054.28125 2237.304688 2048.292969 C 2232.816406 2043.800781 2232.066406 2036.316406 2235.0625 2030.328125 L 1927.398438 1722.667969 L 1838.320312 1722.667969 L 1700.582031 1860.402344 L 1582.308594 1860.402344 L 1761.964844 2040.058594 L 1993.273438 2040.058594 C 1994.769531 2034.070312 2000.757812 2028.832031 2007.496094 2028.832031 C 2015.730469 2028.832031 2022.46875 2035.566406 2022.46875 2043.800781 C 2022.46875 2052.035156 2015.730469 2058.773438 2007.496094 2058.773438 C 2000.757812 2058.773438 1994.769531 2054.28125 1993.273438 2047.542969 L 1758.972656 2047.542969 L 1571.082031 1861.898438 L 1291.867188 1861.898438 L 1014.148438 1584.183594 L 791.074219 1584.183594 C 789.578125 1590.171875 783.589844 1595.410156 776.851562 1595.410156 C 768.617188 1595.410156 761.882812 1588.671875 761.882812 1580.4375 C 761.882812 1572.203125 768.617188 1565.46875 776.851562 1565.46875 C 783.589844 1565.46875 789.578125 1569.960938 791.074219 1576.695312 L 1017.140625 1576.695312 L 1294.859375 1854.414062 L 1696.839844 1854.414062 L 1826.34375 1724.914062 L 1532.15625 1724.914062 L 1227.488281 1420.246094 L 635.375 1420.246094 L 442.992188 1612.628906 L 546.292969 1612.628906 L 906.355469 1972.6875 L 1443.078125 1972.6875 L 1746.246094 2275.859375 L 2271.738281 2275.859375 L 2610.09375 1937.503906 L 2512.03125 1937.503906 L 1773.195312 1197.921875 L 1150.386719 1197.921875 L 747.65625 795.191406 L 43.257812 795.191406 C 41.757812 801.179688 35.769531 806.421875 29.035156 806.421875 C 20.800781 806.421875 14.0625 799.683594 14.0625 791.449219 C 14.0625 783.214844 20.800781 776.476562 29.035156 776.476562 C 35.769531 776.476562 41.757812 780.96875 43.257812 787.707031 L 508.117188 787.707031 L 770.863281 524.960938 L 958.003906 524.960938 L 781.34375 347.550781 L 651.839844 347.550781 L 499.882812 499.507812 L 297.019531 499.507812 L 166.769531 629.757812 L 43.257812 629.757812 C 41.757812 635.746094 35.769531 640.988281 29.035156 640.988281 C 20.800781 640.988281 14.0625 634.25 14.0625 626.015625 C 14.0625 617.78125 20.800781 611.042969 29.035156 611.042969 C 35.769531 611.042969 41.757812 615.535156 43.257812 622.273438 L 163.027344 622.273438 L 293.277344 492.023438 L 496.140625 492.023438 L 640.613281 347.550781 L 570.246094 347.550781 L 409.304688 186.605469 L 43.257812 186.605469 C 41.757812 192.597656 35.769531 197.835938 29.035156 197.835938 C 20.800781 197.835938 14.0625 191.097656 14.0625 182.863281 C 14.0625 174.628906 20.800781 167.894531 29.035156 167.894531 C 35.769531 167.894531 41.757812 172.382812 43.257812 179.121094 L 300.015625 179.121094 L 383.855469 95.28125 L 702.742188 95.28125 L 780.59375 173.132812 L 1020.136719 173.132812 L 1190.808594 343.804688 L 1354.746094 343.804688 L 1556.859375 141.691406 L 1748.492188 141.691406 C 1749.988281 135.703125 1755.976562 130.464844 1762.714844 130.464844 C 1770.949219 130.464844 1777.6875 137.203125 1777.6875 145.4375 C 1777.6875 153.671875 1770.949219 160.40625 1762.714844 160.40625 C 1755.976562 160.40625 1749.988281 155.917969 1748.492188 149.179688 L 1559.851562 149.179688 L 1357.738281 351.292969 L 1187.066406 351.292969 L 1017.140625 180.617188 L 777.601562 180.617188 L 699.75 102.769531 L 387.597656 102.769531 L 311.992188 178.375 L 413.046875 178.375 L 573.992188 339.316406 L 785.085938 339.316406 L 969.984375 524.210938 L 1505.957031 524.210938 L 1789.664062 807.167969 L 2240.300781 807.167969 L 2690.9375 356.53125 L 2825.679688 356.53125 L 2654.257812 185.109375 L 2342.105469 185.109375 L 2101.066406 426.898438 L 1807.628906 426.898438 L 1997.015625 616.285156 L 2181.914062 616.285156 L 2396.003906 402.195312 C 2393.007812 396.207031 2393.757812 389.46875 2398.25 384.230469 C 2404.238281 378.242188 2413.21875 378.242188 2419.207031 384.230469 C 2425.195312 390.21875 2425.195312 399.199219 2419.207031 405.1875 C 2414.714844 409.679688 2407.230469 410.429688 2401.242188 407.433594 L 2184.90625 623.769531 L 1993.273438 623.769531 L 1795.652344 426.148438 L 1607.011719 426.148438 C 1605.515625 432.136719 1599.527344 437.378906 1592.789062 437.378906 C 1584.554688 437.378906 1577.820312 430.640625 1577.820312 422.40625 C 1577.820312 414.171875 1584.554688 407.433594 1592.789062 407.433594 C 1599.527344 407.433594 1605.515625 411.925781 1607.011719 418.664062 L 2097.324219 418.664062 L 2339.109375 176.875 L 2658 176.875 L 2837.65625 356.53125 L 3020.308594 356.53125 L 3186.488281 190.351562 L 3345.183594 190.351562 L 3187.984375 33.152344 L 2232.816406 33.152344 L 2008.992188 256.972656 C 2010.492188 259.21875 2011.238281 261.464844 2011.238281 264.457031 C 2011.238281 272.691406 2004.5 279.429688 1996.269531 279.429688 C 1988.035156 279.429688 1981.296875 272.691406 1981.296875 264.457031 C 1981.296875 256.222656 1988.035156 249.488281 1996.269531 249.488281 C 1999.261719 249.488281 2001.507812 250.234375 2003.753906 251.734375 L 2229.070312 25.664062 L 3190.980469 25.664062 L 3355.664062 190.351562 L 3533.074219 190.351562 L 3697.761719 25.664062 C 3694.765625 19.675781 3695.515625 12.941406 3700.007812 7.699219 C 3705.996094 1.710938 3714.976562 1.710938 3720.964844 7.699219 C 3726.953125 13.6875 3726.953125 22.671875 3720.964844 28.660156 C 3715.726562 33.152344 3708.988281 33.898438 3703 30.90625 L 3536.820312 197.835938 L 3189.484375 197.835938 L 3023.300781 364.019531 L 2942.457031 364.019531 L 3116.125 537.683594 L 3294.28125 537.683594 L 3406.566406 425.398438 L 3463.460938 425.398438 L 3356.414062 318.355469 L 3249.367188 318.355469 L 3163.285156 404.441406 C 3164.78125 406.6875 3165.53125 408.933594 3165.53125 411.925781 C 3165.53125 420.160156 3158.792969 426.898438 3150.558594 426.898438 C 3142.324219 426.898438 3135.585938 420.160156 3135.585938 411.925781 C 3135.585938 403.691406 3142.324219 396.953125 3150.558594 396.953125 C 3153.550781 396.953125 3155.796875 397.703125 3158.042969 399.199219 L 3245.625 310.121094 L 3359.410156 310.121094 L 3474.6875 425.398438 L 3535.320312 425.398438 L 3616.167969 344.554688 L 3697.011719 344.554688 C 3698.507812 338.566406 3704.496094 333.328125 3711.234375 333.328125 C 3719.46875 333.328125 3726.207031 340.0625 3726.207031 348.296875 C 3726.207031 356.53125 3719.46875 363.269531 3711.234375 363.269531 C 3704.496094 363.269531 3698.507812 358.777344 3697.011719 352.039062 L 3619.160156 352.039062 L 3538.316406 432.886719 L 3409.5625 432.886719 L 3304.761719 537.683594 L 3381.117188 537.683594 L 3466.453125 623.023438 L 3696.261719 623.023438 C 3697.761719 617.035156 3703.75 611.792969 3710.484375 611.792969 C 3718.71875 611.792969 3725.457031 618.53125 3725.457031 626.765625 C 3725.457031 635 3718.71875 641.734375 3710.484375 641.734375 C 3703.75 641.734375 3697.761719 637.246094 3696.261719 630.507812 L 3463.460938 630.507812 L 3378.121094 545.171875 L 3112.382812 545.171875 L 2930.480469 363.269531 L 2693.933594 363.269531 L 2242.546875 813.90625 L 2071.125 813.90625 L 2211.105469 953.886719 L 2548.710938 953.886719 L 2704.414062 798.1875 L 2824.929688 798.1875 L 2666.234375 639.492188 L 2590.628906 639.492188 L 2416.960938 814.65625 C 2419.957031 820.644531 2419.207031 827.378906 2414.714844 832.621094 C 2408.726562 838.609375 2399.746094 838.609375 2393.757812 832.621094 C 2387.769531 826.632812 2387.769531 817.648438 2393.757812 811.660156 C 2398.996094 807.167969 2405.734375 806.421875 2411.722656 809.414062 L 2587.636719 633.5 L 2618.328125 633.5 L 2746.332031 504.75 L 2857.867188 504.75 L 2934.96875 581.851562 C 2940.957031 578.855469 2947.695312 579.605469 2952.9375 584.097656 C 2958.925781 590.085938 2958.925781 599.066406 2952.9375 605.054688 C 2946.949219 611.042969 2937.964844 611.042969 2931.976562 605.054688 C 2927.484375 599.816406 2926.734375 593.078125 2929.730469 587.089844 L 2854.875 512.234375 L 2750.074219 512.234375 L 2630.304688 632.003906 L 2670.726562 632.003906 L 2837.65625 798.933594 L 2931.976562 798.933594 L 3070.460938 660.449219 L 3208.945312 660.449219 C 3210.441406 653.714844 3216.433594 649.222656 3223.167969 649.222656 C 3231.402344 649.222656 3238.140625 655.957031 3238.140625 664.191406 C 3238.140625 672.425781 3231.402344 679.164062 3223.167969 679.164062 C 3216.433594 679.164062 3210.441406 674.671875 3208.945312 668.683594 L 3125.855469 668.683594 L 3233.648438 776.476562 L 3310.75 776.476562 L 3383.363281 703.867188 L 3629.640625 703.867188 C 3631.136719 697.878906 3637.125 692.636719 3643.863281 692.636719 C 3652.097656 692.636719 3658.835938 699.375 3658.835938 707.609375 C 3658.835938 715.84375 3652.097656 722.582031 3643.863281 722.582031 C 3637.125 722.582031 3631.136719 718.089844 3629.640625 711.351562 L 3384.859375 711.351562 L 3312.25 783.964844 L 3228.410156 783.964844 L 3113.128906 668.683594 L 3072.707031 668.683594 L 2934.222656 807.167969 L 2896.046875 807.167969 L 2958.175781 869.300781 L 3105.644531 869.300781 L 3195.472656 959.128906 L 3319.734375 959.128906 L 3455.972656 822.890625 L 3563.019531 822.890625 L 3696.261719 956.132812 C 3702.25 953.140625 3708.988281 953.886719 3714.230469 958.378906 C 3720.21875 964.367188 3720.21875 973.351562 3714.230469 979.339844 C 3708.242188 985.328125 3699.257812 985.328125 3693.269531 979.339844 C 3688.777344 974.847656 3688.027344 967.363281 3691.023438 961.375 L 3560.023438 830.375 L 3458.96875 830.375 L 3322.726562 966.613281 L 3248.621094 966.613281 L 3161.039062 1054.195312 L 2939.460938 1054.195312 L 2818.941406 933.675781 C 2812.953125 937.421875 2805.46875 936.671875 2800.976562 931.429688 C 2794.988281 925.441406 2794.988281 916.460938 2800.976562 910.472656 C 2806.964844 904.484375 2815.949219 904.484375 2821.9375 910.472656 C 2826.429688 914.964844 2827.175781 922.449219 2824.183594 928.4375 L 2942.457031 1046.710938 L 3158.042969 1046.710938 L 3237.390625 967.363281 L 3191.730469 967.363281 L 3101.902344 877.535156 L 2954.433594 877.535156 L 2884.066406 807.167969 L 2708.15625 807.167969 L 2559.9375 954.636719 L 2652.011719 954.636719 L 2869.097656 1171.722656 L 3226.910156 1171.722656 L 3342.191406 1057.191406 L 3547.296875 1057.191406 C 3548.796875 1051.203125 3554.785156 1045.960938 3561.519531 1045.960938 C 3569.753906 1045.960938 3576.492188 1052.699219 3576.492188 1060.933594 C 3576.492188 1069.167969 3569.753906 1075.90625 3561.519531 1075.90625 C 3554.785156 1075.90625 3548.796875 1071.414062 3547.296875 1064.675781 L 3345.183594 1064.675781 L 3230.65625 1179.207031 L 3061.476562 1179.207031 L 2920 1320.6875 L 2778.519531 1320.6875 L 2590.628906 1132.796875 L 2322.644531 1132.796875 C 2321.144531 1138.785156 2315.15625 1144.023438 2308.421875 1144.023438 C 2300.1875 1144.023438 2293.449219 1137.289062 2293.449219 1129.054688 C 2293.449219 1120.820312 2300.1875 1114.082031 2308.421875 1114.082031 C 2315.15625 1114.082031 2321.144531 1118.574219 2322.644531 1125.308594 L 2593.625 1125.308594 L 2781.515625 1313.199219 L 2916.257812 1313.199219 L 3050.25 1179.207031 L 2866.101562 1179.207031 L 2649.019531 962.121094 L 2208.113281 962.121094 L 2059.894531 813.90625 L 1836.824219 813.90625 L 1640.699219 1010.03125 L 1404.152344 1010.03125 L 1066.546875 672.425781 L 837.484375 672.425781 C 835.988281 678.414062 830 683.65625 823.261719 683.65625 C 815.027344 683.65625 808.292969 676.917969 808.292969 668.683594 C 808.292969 660.449219 815.027344 653.714844 823.261719 653.714844 C 830 653.714844 835.988281 658.203125 837.484375 664.941406 L 983.457031 664.941406 L 1053.074219 595.324219 L 1342.769531 595.324219 L 1577.070312 829.625 C 1583.058594 826.632812 1589.796875 827.378906 1595.035156 831.871094 C 1601.023438 837.859375 1601.023438 846.84375 1595.035156 852.832031 C 1589.046875 858.820312 1580.066406 858.820312 1574.074219 852.832031 C 1568.835938 847.59375 1568.085938 840.105469 1571.832031 834.867188 L 1339.773438 602.808594 L 1056.816406 602.808594 L 995.433594 664.191406 L 1071.789062 664.191406 L 1409.390625 1001.796875 L 1639.203125 1001.796875 L 1827.089844 813.90625 L 1786.667969 813.90625 L 1502.960938 530.949219 L 775.355469 530.949219 L 520.09375 786.210938 L 752.148438 786.210938 L 1154.878906 1189.6875 L 1643.691406 1189.6875 L 1784.421875 1048.957031 L 2046.421875 1048.957031 L 2357.824219 1360.359375 L 2663.988281 1360.359375 L 2902.035156 1598.40625 C 2908.023438 1595.410156 2914.757812 1596.160156 2920 1600.648438 C 2925.988281 1606.640625 2925.988281 1615.621094 2920 1621.609375 C 2914.011719 1627.597656 2905.027344 1627.597656 2899.039062 1621.609375 C 2894.546875 1616.371094 2893.800781 1609.632812 2896.792969 1603.644531 L 2660.996094 1367.847656 L 2510.53125 1367.847656 L 2381.78125 1496.597656 L 2321.144531 1496.597656 L 2568.921875 1744.375 L 2759.804688 1744.375 C 2761.304688 1738.386719 2767.292969 1733.148438 2774.027344 1733.148438 C 2782.261719 1733.148438 2789 1739.882812 2789 1748.117188 C 2789 1756.351562 2782.261719 1763.089844 2774.027344 1763.089844 C 2767.292969 1763.089844 2761.304688 1758.597656 2759.804688 1751.859375 L 2565.925781 1751.859375 L 2309.917969 1495.851562 L 2259.761719 1495.851562 L 2047.917969 1284.007812 C 2041.929688 1287 2035.191406 1286.253906 2029.953125 1281.761719 C 2023.964844 1275.773438 2023.964844 1266.789062 2029.953125 1260.800781 C 2035.941406 1254.8125 2044.925781 1254.8125 2050.914062 1260.800781 C 2056.152344 1266.039062 2056.152344 1272.777344 2053.160156 1278.765625 L 2262.757812 1488.363281 L 2375.792969 1488.363281 L 2497.058594 1367.097656 L 2352.585938 1367.097656 L 2042.679688 1057.191406 L 1787.417969 1057.191406 L 1654.921875 1189.6875 L 1777.6875 1189.6875 L 2516.523438 1928.523438 L 2812.953125 1928.523438 L 3142.324219 1599.152344 L 3312.996094 1599.152344 L 3166.277344 1452.433594 L 2947.695312 1452.433594 C 2946.199219 1458.421875 2940.210938 1463.664062 2933.472656 1463.664062 C 2925.238281 1463.664062 2918.5 1456.925781 2918.5 1448.691406 C 2918.5 1440.457031 2925.238281 1433.71875 2933.472656 1433.71875 C 2940.210938 1433.71875 2946.199219 1438.210938 2947.695312 1444.949219 L 3097.410156 1444.949219 L 3199.964844 1342.394531 L 3421.539062 1342.394531 L 3542.058594 1221.875 L 3697.011719 1221.875 C 3698.507812 1215.886719 3704.496094 1210.648438 3711.234375 1210.648438 C 3719.46875 1210.648438 3726.207031 1217.382812 3726.207031 1225.617188 C 3726.207031 1233.851562 3719.46875 1240.589844 3711.234375 1240.589844 C 3704.496094 1240.589844 3698.507812 1236.097656 3697.011719 1229.359375 L 3544.304688 1229.359375 L 3423.785156 1349.878906 L 3202.207031 1349.878906 L 3107.890625 1444.199219 L 3168.523438 1444.199219 L 3323.476562 1599.152344 L 3455.972656 1599.152344 L 3697.761719 1357.367188 C 3694.765625 1351.378906 3695.515625 1344.640625 3700.007812 1339.402344 C 3705.996094 1333.410156 3714.976562 1333.410156 3720.964844 1339.402344 C 3726.953125 1345.390625 3726.953125 1354.371094 3720.964844 1360.359375 C 3716.472656 1364.851562 3708.988281 1365.601562 3703 1362.605469 L 3458.96875 1606.640625 L 3144.570312 1606.640625 L 2815.199219 1936.007812 L 2621.320312 1936.007812 L 2274.734375 2282.59375 L 2017.226562 2282.59375 L 2344.351562 2609.71875 L 2638.539062 2609.71875 L 2784.507812 2463.746094 L 2884.816406 2463.746094 L 3085.433594 2263.132812 L 3189.484375 2263.132812 L 3027.042969 2100.691406 L 2774.027344 2100.691406 L 2473.105469 2401.617188 L 2404.984375 2401.617188 L 2506.042969 2502.671875 L 2577.902344 2502.671875 L 2869.84375 2210.734375 L 2957.425781 2210.734375 C 2958.925781 2204.742188 2964.914062 2199.503906 2971.648438 2199.503906 C 2979.882812 2199.503906 2986.621094 2206.242188 2986.621094 2214.476562 C 2986.621094 2222.710938 2979.882812 2229.445312 2971.648438 2229.445312 C 2964.914062 2229.445312 2958.925781 2224.957031 2957.425781 2218.21875 L 2872.839844 2218.21875 L 2580.898438 2510.160156 L 2502.300781 2510.160156 L 2393.007812 2400.867188 L 2288.207031 2400.867188 C 2286.710938 2406.855469 2280.722656 2412.097656 2273.984375 2412.097656 C 2265.75 2412.097656 2259.015625 2405.359375 2259.015625 2397.125 C 2259.015625 2388.890625 2265.75 2382.152344 2273.984375 2382.152344 C 2280.722656 2382.152344 2286.710938 2386.644531 2288.207031 2393.382812 L 2469.363281 2393.382812 L 2770.285156 2092.457031 L 2949.195312 2092.457031 L 3181.996094 1859.65625 L 3437.257812 1859.65625 L 3544.304688 1752.609375 L 3689.527344 1752.609375 C 3691.023438 1746.621094 3697.011719 1741.378906 3703.75 1741.378906 C 3711.984375 1741.378906 3718.71875 1748.117188 3718.71875 1756.351562 C 3718.71875 1764.585938 3711.984375 1771.324219 3703.75 1771.324219 C 3697.011719 1771.324219 3691.023438 1766.832031 3689.527344 1760.09375 L 3547.296875 1760.09375 L 3440.253906 1867.140625 L 3184.992188 1867.140625 L 2960.421875 2091.710938 L 3029.289062 2091.710938 L 3199.964844 2262.382812 L 3293.535156 2262.382812 L 3574.246094 1981.671875 L 3639.371094 1981.671875 L 3586.222656 1929.269531 L 3460.464844 1929.269531 L 3282.304688 2107.429688 L 3188.734375 2107.429688 C 3187.238281 2113.417969 3181.25 2118.660156 3174.511719 2118.660156 C 3166.277344 2118.660156 3159.542969 2111.921875 3159.542969 2103.6875 C 3159.542969 2095.453125 3166.277344 2088.714844 3174.511719 2088.714844 C 3181.25 2088.714844 3187.238281 2093.207031 3188.734375 2099.945312 L 3279.3125 2099.945312 L 3457.46875 1921.785156 L 3589.21875 1921.785156 L 3649.851562 1982.417969 L 3695.515625 1982.417969 C 3697.011719 1976.429688 3703 1971.191406 3709.738281 1971.191406 C 3717.972656 1971.191406 3724.710938 1977.929688 3724.710938 1986.164062 C 3724.710938 1994.394531 3717.972656 2001.132812 3709.738281 2001.132812 C 3703 2001.132812 3697.011719 1996.640625 3695.515625 1989.90625 L 3577.242188 1989.90625 L 3297.277344 2271.367188 L 3241.882812 2271.367188 L 3357.910156 2387.394531 L 3394.589844 2387.394531 L 3540.5625 2241.421875 L 3682.039062 2241.421875 C 3683.539062 2235.433594 3689.527344 2230.195312 3696.261719 2230.195312 C 3704.496094 2230.195312 3711.234375 2236.933594 3711.234375 2245.167969 C 3711.234375 2253.402344 3704.496094 2260.136719 3696.261719 2260.136719 C 3689.527344 2260.136719 3683.539062 2255.644531 3682.039062 2248.910156 L 3544.304688 2248.910156 L 3405.820312 2387.394531 L 3521.097656 2387.394531 L 3711.984375 2578.277344 C 3717.972656 2575.285156 3724.707031 2576.03125 3729.949219 2580.523438 C 3735.9375 2586.511719 3735.9375 2595.496094 3729.949219 2601.484375 C 3723.960938 2607.472656 3714.976562 2607.472656 3708.988281 2601.484375 C 3703 2596.992188 3702.25 2589.507812 3705.246094 2584.265625 Z M 3705.246094 2584.265625 " fill-opacity="1" fill-rule="nonzero"/></g></svg>